<?xml version="1.0" encoding="UTF-8" standalone="no"?>
<!DOCTYPE svg PUBLIC "-//W3C//DTD SVG 1.1//EN"
 "http://www.w3.org/Graphics/SVG/1.1/DTD/svg11.dtd">
<!-- Generated by graphviz version 2.40.1 (20161225.0304)
 -->
<!-- Title: dependencies Pages: 1 -->
<svg width="1285pt" height="284pt"
 viewBox="0.00 0.00 1285.00 284.00" xmlns="http://www.w3.org/2000/svg" xmlns:xlink="http://www.w3.org/1999/xlink">
<g id="graph0" class="graph" transform="scale(1 1) rotate(0) translate(4 280)">
<title>dependencies</title>
<polygon fill="#ffffff" stroke="transparent" points="-4,4 -4,-280 1281,-280 1281,4 -4,4"/>
<text text-anchor="start" x="617.5091" y="-42.4" font-family="sans-serif" font-weight="bold" font-size="14.00" fill="#000000">Legend</text>
<polygon fill="#ffffb3" stroke="transparent" points="404.5,-10 404.5,-30 424.5,-30 424.5,-10 404.5,-10"/>
<text text-anchor="start" x="428.129" y="-15.4" font-family="sans-serif" font-size="14.00" fill="#000000"> &#160;Declarations</text>
<polygon fill="#8dd3c7" stroke="transparent" points="517.5,-10 517.5,-30 537.5,-30 537.5,-10 517.5,-10"/>
<text text-anchor="start" x="541.2251" y="-15.4" font-family="sans-serif" font-size="14.00" fill="#000000"> &#160;Module</text>
<polygon fill="#80b1d3" stroke="transparent" points="603.5,-10 603.5,-30 623.5,-30 623.5,-10 603.5,-10"/>
<text text-anchor="start" x="627.2812" y="-15.4" font-family="sans-serif" font-size="14.00" fill="#000000"> &#160;Bootstrap</text>
<polygon fill="#fdb462" stroke="transparent" points="700.5,-10 700.5,-30 720.5,-30 720.5,-10 700.5,-10"/>
<text text-anchor="start" x="724.1732" y="-15.4" font-family="sans-serif" font-size="14.00" fill="#000000"> &#160;Providers</text>
<polygon fill="#fb8072" stroke="transparent" points="796.5,-10 796.5,-30 816.5,-30 816.5,-10 796.5,-10"/>
<text text-anchor="start" x="820.2258" y="-15.4" font-family="sans-serif" font-size="14.00" fill="#000000"> &#160;Exports</text>
<g id="clust1" class="cluster">
<title>cluster_UserAdminModule</title>
<polygon fill="none" stroke="#000000" stroke-dasharray="1,5" points="8,-70 8,-268 1269,-268 1269,-70 8,-70"/>
</g>
<g id="clust3" class="cluster">
<title>cluster_UserAdminModule_imports</title>
<polygon fill="none" stroke="#000000" points="158,-78 158,-130 1179,-130 1179,-78 158,-78"/>
</g>
<g id="clust4" class="cluster">
<title>cluster_UserAdminModule_exports</title>
<polygon fill="none" stroke="#000000" points="16,-208 16,-260 1261,-260 1261,-208 16,-208"/>
</g>
<!-- BrowserModule -->
<g id="node1" class="node">
<title>BrowserModule</title>
<polygon fill="#8dd3c7" stroke="#000000" points="1171.4734,-122 1168.4734,-126 1147.4734,-126 1144.4734,-122 1064.5266,-122 1064.5266,-86 1171.4734,-86 1171.4734,-122"/>
<text text-anchor="middle" x="1118" y="-99.8" font-family="Times,serif" font-size="14.00" fill="#000000">BrowserModule</text>
</g>
<!-- UserAdminModule -->
<g id="node9" class="node">
<title>UserAdminModule</title>
<polygon fill="#8dd3c7" stroke="#000000" points="745.3641,-187 742.3641,-191 721.3641,-191 718.3641,-187 620.6359,-187 620.6359,-151 745.3641,-151 745.3641,-187"/>
<text text-anchor="middle" x="683" y="-164.8" font-family="Times,serif" font-size="14.00" fill="#000000">UserAdminModule</text>
</g>
<!-- BrowserModule&#45;&gt;UserAdminModule -->
<g id="edge1" class="edge">
<title>BrowserModule&#45;&gt;UserAdminModule</title>
<path fill="none" stroke="#000000" d="M1086.8256,-122.2222C1086.8256,-140.8285 1086.8256,-167 1086.8256,-167 1086.8256,-167 755.6547,-167 755.6547,-167"/>
<polygon fill="#000000" stroke="#000000" points="755.6547,-163.5001 745.6547,-167 755.6546,-170.5001 755.6547,-163.5001"/>
</g>
<!-- HttpModule -->
<g id="node2" class="node">
<title>HttpModule</title>
<polygon fill="#8dd3c7" stroke="#000000" points="1046.4387,-122 1043.4387,-126 1022.4387,-126 1019.4387,-122 961.5613,-122 961.5613,-86 1046.4387,-86 1046.4387,-122"/>
<text text-anchor="middle" x="1004" y="-99.8" font-family="Times,serif" font-size="14.00" fill="#000000">HttpModule</text>
</g>
<!-- HttpModule&#45;&gt;UserAdminModule -->
<g id="edge2" class="edge">
<title>HttpModule&#45;&gt;UserAdminModule</title>
<path fill="none" stroke="#000000" d="M967.1517,-122.0336C967.1517,-139.0597 967.1517,-162 967.1517,-162 967.1517,-162 755.7101,-162 755.7101,-162"/>
<polygon fill="#000000" stroke="#000000" points="755.7101,-158.5001 745.7101,-162 755.71,-165.5001 755.7101,-158.5001"/>
</g>
<!-- FormsModule -->
<g id="node3" class="node">
<title>FormsModule</title>
<polygon fill="#8dd3c7" stroke="#000000" points="943.8288,-122 940.8288,-126 919.8288,-126 916.8288,-122 848.1712,-122 848.1712,-86 943.8288,-86 943.8288,-122"/>
<text text-anchor="middle" x="896" y="-99.8" font-family="Times,serif" font-size="14.00" fill="#000000">FormsModule</text>
</g>
<!-- FormsModule&#45;&gt;UserAdminModule -->
<g id="edge3" class="edge">
<title>FormsModule&#45;&gt;UserAdminModule</title>
<path fill="none" stroke="#000000" d="M913.602,-122.2396C913.602,-137.5706 913.602,-157 913.602,-157 913.602,-157 755.4042,-157 755.4042,-157"/>
<polygon fill="#000000" stroke="#000000" points="755.4043,-153.5001 745.4042,-157 755.4042,-160.5001 755.4043,-153.5001"/>
</g>
<!-- ReactiveFormsModule -->
<g id="node4" class="node">
<title>ReactiveFormsModule</title>
<polygon fill="#8dd3c7" stroke="#000000" points="830.3047,-122 827.3047,-126 806.3047,-126 803.3047,-122 685.6953,-122 685.6953,-86 830.3047,-86 830.3047,-122"/>
<text text-anchor="middle" x="758" y="-99.8" font-family="Times,serif" font-size="14.00" fill="#000000">ReactiveFormsModule</text>
</g>
<!-- ReactiveFormsModule&#45;&gt;UserAdminModule -->
<g id="edge4" class="edge">
<title>ReactiveFormsModule&#45;&gt;UserAdminModule</title>
<path fill="none" stroke="#000000" d="M715.6399,-122.1061C715.6399,-122.1061 715.6399,-140.991 715.6399,-140.991"/>
<polygon fill="#000000" stroke="#000000" points="712.14,-140.9909 715.6399,-150.991 719.14,-140.991 712.14,-140.9909"/>
</g>
<!-- AlertModule -->
<g id="node5" class="node">
<title>AlertModule</title>
<polygon fill="#8dd3c7" stroke="#000000" points="668.3134,-122 665.3134,-126 644.3134,-126 641.3134,-122 579.6866,-122 579.6866,-86 668.3134,-86 668.3134,-122"/>
<text text-anchor="middle" x="624" y="-99.8" font-family="Times,serif" font-size="14.00" fill="#000000">AlertModule</text>
</g>
<!-- AlertModule&#45;&gt;UserAdminModule -->
<g id="edge5" class="edge">
<title>AlertModule&#45;&gt;UserAdminModule</title>
<path fill="none" stroke="#000000" d="M644.3622,-122.1061C644.3622,-122.1061 644.3622,-140.991 644.3622,-140.991"/>
<polygon fill="#000000" stroke="#000000" points="640.8623,-140.9909 644.3622,-150.991 647.8623,-140.991 640.8623,-140.9909"/>
</g>
<!-- ModalModule -->
<g id="node6" class="node">
<title>ModalModule</title>
<polygon fill="#8dd3c7" stroke="#000000" points="562.0997,-122 559.0997,-126 538.0997,-126 535.0997,-122 465.9003,-122 465.9003,-86 562.0997,-86 562.0997,-122"/>
<text text-anchor="middle" x="514" y="-99.8" font-family="Times,serif" font-size="14.00" fill="#000000">ModalModule</text>
</g>
<!-- ModalModule&#45;&gt;UserAdminModule -->
<g id="edge6" class="edge">
<title>ModalModule&#45;&gt;UserAdminModule</title>
<path fill="none" stroke="#000000" d="M539.9076,-122.2396C539.9076,-137.5706 539.9076,-157 539.9076,-157 539.9076,-157 610.2376,-157 610.2376,-157"/>
<polygon fill="#000000" stroke="#000000" points="610.2376,-160.5001 620.2376,-157 610.2376,-153.5001 610.2376,-160.5001"/>
</g>
<!-- TabsModule -->
<g id="node7" class="node">
<title>TabsModule</title>
<polygon fill="#8dd3c7" stroke="#000000" points="448.2619,-122 445.2619,-126 424.2619,-126 421.2619,-122 361.7381,-122 361.7381,-86 448.2619,-86 448.2619,-122"/>
<text text-anchor="middle" x="405" y="-99.8" font-family="Times,serif" font-size="14.00" fill="#000000">TabsModule</text>
</g>
<!-- TabsModule&#45;&gt;UserAdminModule -->
<g id="edge7" class="edge">
<title>TabsModule&#45;&gt;UserAdminModule</title>
<path fill="none" stroke="#000000" d="M405,-122.0336C405,-139.0597 405,-162 405,-162 405,-162 610.6114,-162 610.6114,-162"/>
<polygon fill="#000000" stroke="#000000" points="610.6114,-165.5001 620.6114,-162 610.6113,-158.5001 610.6114,-165.5001"/>
</g>
<!-- RouterModule.forRoot(args) -->
<g id="node8" class="node">
<title>RouterModule.forRoot(args)</title>
<polygon fill="#8dd3c7" stroke="#000000" points="343.8419,-122 340.8419,-126 319.8419,-126 316.8419,-122 166.1581,-122 166.1581,-86 343.8419,-86 343.8419,-122"/>
<text text-anchor="middle" x="255" y="-99.8" font-family="Times,serif" font-size="14.00" fill="#000000">RouterModule.forRoot(args)</text>
</g>
<!-- RouterModule.forRoot(args)&#45;&gt;UserAdminModule -->
<g id="edge8" class="edge">
<title>RouterModule.forRoot(args)&#45;&gt;UserAdminModule</title>
<path fill="none" stroke="#000000" d="M335.857,-122.2222C335.857,-140.8285 335.857,-167 335.857,-167 335.857,-167 610.5369,-167 610.5369,-167"/>
<polygon fill="#000000" stroke="#000000" points="610.5369,-170.5001 620.5369,-167 610.5368,-163.5001 610.5369,-170.5001"/>
</g>
<!-- HeaderComponent  -->
<g id="node10" class="node">
<title>HeaderComponent </title>
<polygon fill="#fb8072" stroke="#000000" points="1252.7436,-252 1127.2564,-252 1127.2564,-216 1252.7436,-216 1252.7436,-252"/>
<text text-anchor="middle" x="1190" y="-229.8" font-family="Times,serif" font-size="14.00" fill="#000000">HeaderComponent </text>
</g>
<!-- UserAdminModule&#45;&gt;HeaderComponent  -->
<g id="edge9" class="edge">
<title>UserAdminModule&#45;&gt;HeaderComponent </title>
<path fill="none" stroke="#000000" stroke-dasharray="5,2" d="M745.4212,-172C872.5198,-172 1149.4325,-172 1149.4325,-172 1149.4325,-172 1149.4325,-205.7333 1149.4325,-205.7333"/>
<polygon fill="#000000" stroke="#000000" points="1145.9326,-205.7333 1149.4325,-215.7333 1152.9326,-205.7333 1145.9326,-205.7333"/>
</g>
<!-- LoginComponent  -->
<g id="node11" class="node">
<title>LoginComponent </title>
<polygon fill="#fb8072" stroke="#000000" points="1109.2759,-252 990.7241,-252 990.7241,-216 1109.2759,-216 1109.2759,-252"/>
<text text-anchor="middle" x="1050" y="-229.8" font-family="Times,serif" font-size="14.00" fill="#000000">LoginComponent </text>
</g>
<!-- UserAdminModule&#45;&gt;LoginComponent  -->
<g id="edge10" class="edge">
<title>UserAdminModule&#45;&gt;LoginComponent </title>
<path fill="none" stroke="#000000" stroke-dasharray="5,2" d="M745.719,-177C842.8366,-177 1018.5405,-177 1018.5405,-177 1018.5405,-177 1018.5405,-205.9648 1018.5405,-205.9648"/>
<polygon fill="#000000" stroke="#000000" points="1015.0406,-205.9648 1018.5405,-215.9648 1022.0406,-205.9649 1015.0406,-205.9648"/>
</g>
<!-- HomeComponent  -->
<g id="node12" class="node">
<title>HomeComponent </title>
<polygon fill="#fb8072" stroke="#000000" points="972.5442,-252 853.4558,-252 853.4558,-216 972.5442,-216 972.5442,-252"/>
<text text-anchor="middle" x="913" y="-229.8" font-family="Times,serif" font-size="14.00" fill="#000000">HomeComponent </text>
</g>
<!-- UserAdminModule&#45;&gt;HomeComponent  -->
<g id="edge11" class="edge">
<title>UserAdminModule&#45;&gt;HomeComponent </title>
<path fill="none" stroke="#000000" stroke-dasharray="5,2" d="M745.6272,-182C804.4679,-182 883.54,-182 883.54,-182 883.54,-182 883.54,-205.8129 883.54,-205.8129"/>
<polygon fill="#000000" stroke="#000000" points="880.0401,-205.8129 883.54,-215.8129 887.0401,-205.813 880.0401,-205.8129"/>
</g>
<!-- UserListComponent  -->
<g id="node13" class="node">
<title>UserListComponent </title>
<polygon fill="#fb8072" stroke="#000000" points="835.5372,-252 702.4628,-252 702.4628,-216 835.5372,-216 835.5372,-252"/>
<text text-anchor="middle" x="769" y="-229.8" font-family="Times,serif" font-size="14.00" fill="#000000">UserListComponent </text>
</g>
<!-- UserAdminModule&#45;&gt;UserListComponent  -->
<g id="edge12" class="edge">
<title>UserAdminModule&#45;&gt;UserListComponent </title>
<path fill="none" stroke="#000000" stroke-dasharray="5,2" d="M723.9567,-187.1061C723.9567,-187.1061 723.9567,-205.991 723.9567,-205.991"/>
<polygon fill="#000000" stroke="#000000" points="720.4568,-205.9909 723.9567,-215.991 727.4568,-205.991 720.4568,-205.9909"/>
</g>
<!-- UserEventLogComponent  -->
<g id="node14" class="node">
<title>UserEventLogComponent </title>
<polygon fill="#fb8072" stroke="#000000" points="684.4699,-252 517.5301,-252 517.5301,-216 684.4699,-216 684.4699,-252"/>
<text text-anchor="middle" x="601" y="-229.8" font-family="Times,serif" font-size="14.00" fill="#000000">UserEventLogComponent </text>
</g>
<!-- UserAdminModule&#45;&gt;UserEventLogComponent  -->
<g id="edge13" class="edge">
<title>UserAdminModule&#45;&gt;UserEventLogComponent </title>
<path fill="none" stroke="#000000" stroke-dasharray="5,2" d="M652.4013,-187.1061C652.4013,-187.1061 652.4013,-205.991 652.4013,-205.991"/>
<polygon fill="#000000" stroke="#000000" points="648.9014,-205.9909 652.4013,-215.991 655.9014,-205.991 648.9014,-205.9909"/>
</g>
<!-- UsersEventLogComponent  -->
<g id="node15" class="node">
<title>UsersEventLogComponent </title>
<polygon fill="#fb8072" stroke="#000000" points="499.9138,-252 328.0862,-252 328.0862,-216 499.9138,-216 499.9138,-252"/>
<text text-anchor="middle" x="414" y="-229.8" font-family="Times,serif" font-size="14.00" fill="#000000">UsersEventLogComponent </text>
</g>
<!-- UserAdminModule&#45;&gt;UsersEventLogComponent  -->
<g id="edge14" class="edge">
<title>UserAdminModule&#45;&gt;UsersEventLogComponent </title>
<path fill="none" stroke="#000000" stroke-dasharray="5,2" d="M620.5269,-182C561.831,-182 482.9536,-182 482.9536,-182 482.9536,-182 482.9536,-205.8129 482.9536,-205.8129"/>
<polygon fill="#000000" stroke="#000000" points="479.4536,-205.8129 482.9536,-215.8129 486.4536,-205.813 479.4536,-205.8129"/>
</g>
<!-- UserEditComponent  -->
<g id="node16" class="node">
<title>UserEditComponent </title>
<polygon fill="#fb8072" stroke="#000000" points="310.0932,-252 175.9068,-252 175.9068,-216 310.0932,-216 310.0932,-252"/>
<text text-anchor="middle" x="243" y="-229.8" font-family="Times,serif" font-size="14.00" fill="#000000">UserEditComponent </text>
</g>
<!-- UserAdminModule&#45;&gt;UserEditComponent  -->
<g id="edge15" class="edge">
<title>UserAdminModule&#45;&gt;UserEditComponent </title>
<path fill="none" stroke="#000000" stroke-dasharray="5,2" d="M620.426,-177C498.9498,-177 243,-177 243,-177 243,-177 243,-205.9648 243,-205.9648"/>
<polygon fill="#000000" stroke="#000000" points="239.5001,-205.9648 243,-215.9648 246.5001,-205.9649 239.5001,-205.9648"/>
</g>
<!-- MessageComponent  -->
<g id="node17" class="node">
<title>MessageComponent </title>
<polygon fill="#fb8072" stroke="#000000" points="157.8101,-252 24.1899,-252 24.1899,-216 157.8101,-216 157.8101,-252"/>
<text text-anchor="middle" x="91" y="-229.8" font-family="Times,serif" font-size="14.00" fill="#000000">MessageComponent </text>
</g>
<!-- UserAdminModule&#45;&gt;MessageComponent  -->
<g id="edge16" class="edge">
<title>UserAdminModule&#45;&gt;MessageComponent </title>
<path fill="none" stroke="#000000" stroke-dasharray="5,2" d="M620.4856,-172C468.3091,-172 91,-172 91,-172 91,-172 91,-205.7333 91,-205.7333"/>
<polygon fill="#000000" stroke="#000000" points="87.5001,-205.7333 91,-215.7333 94.5001,-205.7333 87.5001,-205.7333"/>
</g>
</g>
</svg>
